<svg xmlns="http://www.w3.org/2000/svg" width="24" height="24" viewBox="0 0 24 24" fill="none" stroke="currentColor" stroke-width="1.5" stroke-linecap="round" stroke-linejoin="round">
  <path d="M9.8,6.5c.6,0,1.7-.2,2.3-.2,4.5,0,8.1,2,8.1,4.6s-3.6,4.6-8.1,4.6-8.1-2-8.1-4.6,1.4-3.4,3.8-4.1" />
  <path d="M21.2,12.3c-.5.6-1.1,1.9-1.5,2.8-.7,1.4-1.9,2.5-3.4,3s-2.2.3-4.3.3c-3.2,0-4.5-.4-5.7-1.2s-1.3-1.3-1.7-2.1-1.4-2.4-1.7-2.8" />
  <path d="M10.6,6.4c.5,0,1,0,1.4,0,3.8,0,7.1,1.1,8.6,2.6s2.3.5,2.3,1.2-1.5,1.7-1.8,2.1c-1.2,1.9-4.8,3.2-9.1,3.2s-7.8-1.3-9.1-3.1-1.9-1.8-1.9-2.3c0-.8,1.8-.6,2.5-1.3s2.6-1.6,4.2-2" />
  <path d="M10.4,7.9c.1-.8.8-1.3,1.6-1.2s1.2.9,1,1.7" />
  <path d="M9.7,10.3c.1-.8.8-1.3,1.6-1.2s1.2.9,1,1.7" />
  <path d="M9,12.6c.1-.8.8-1.3,1.6-1.2s1.2.9,1,1.7" />
  <path d="M7.6,7.3c.1-.8.8-1.3,1.6-1.2s1.2.9,1,1.7" />
  <path d="M6.9,9.8c.1-.8.8-1.3,1.6-1.2s1.2.9,1,1.7" />
  <path d="M6.1,12.1c.1-.8.8-1.3,1.6-1.2s1.2.9,1,1.7" />
  <path d="M14.7,11.3s1.5-.5.4-1.5" />
  <path d="M16.5,12.2s1.5-.9.5-2.7" />
</svg>
